<?xml version="1.0" standalone="no"?>
<!DOCTYPE svg PUBLIC "-//W3C//DTD SVG 1.1//EN" "http://www.w3.org/Graphics/SVG/1.1/DTD/svg11.dtd">
<svg xmlns="http://www.w3.org/2000/svg">
<metadata>Generated by Fontastic.me</metadata>
<defs>
<font id="knacc-icons" horiz-adv-x="512">
<font-face font-family="knacc-icons" units-per-em="512" ascent="480" descent="-32"/>
<missing-glyph horiz-adv-x="512" />

<glyph unicode="&#57344;" d="M397 262c-5 0-10-1-15-3-5-2-9-5-13-9-5-3-9-7-13-11-3-3-7-7-10-11 3-3 7-7 11-11 4-4 8-7 12-10 5-3 9-5 14-7 5-2 10-3 15-3 10 0 17 3 22 10 5 6 8 13 8 22 0 9-3 17-9 23-5 7-13 10-22 10z m-121-12c-4 4-9 7-14 9-5 2-10 3-15 3-9 0-16-3-21-10-5-7-8-15-8-23 0-9 3-17 8-23 6-6 13-9 22-9 5 0 10 1 15 3 5 2 10 5 14 8 4 2 8 6 12 10 4 3 8 7 11 11-3 3-7 7-11 11-4 3-8 7-13 10z m213 19c-4 12-11 23-19 33-9 9-19 17-32 23-22 9-51 10-74 2-10-4-19-8-27-14-5-4-10-7-14-12-5 5-9 8-14 12-9 6-21 10-30 14-21 7-39 7-71 0l0 28c0 18-9 29-26 29l-109 0c-15 0-29-10-31-25l-19-107c-1-4-1-9 0-14-5-5-7-13-7-20 0-15 4-29 10-41 6-12 14-22 25-30 9-8 21-13 33-17 12-3 24-5 36-5 0 0 1 0 2 0 13 0 26 2 38 7 9 4 18 9 26 16 7-5 14-10 21-13 23-10 53-11 76-3 9 3 18 8 26 13 5 4 9 7 14 11 5-4 10-8 15-11 8-5 17-10 26-13 24-8 52-7 74 3 13 5 24 13 32 23 9 10 15 21 20 34 4 12 6 25 6 38 0 14-2 27-7 39z m-30-67c-3-8-7-16-13-23-5-6-12-11-21-15-8-4-17-6-28-6-8 0-15 2-22 4-7 2-13 6-20 10-6 4-11 8-17 14-5 5-10 10-15 16-5-6-11-11-16-16-5-6-11-10-16-14-6-4-12-8-19-10-7-2-15-4-23-4-11 0-20 2-28 6-9 4-16 9-21 15-6 6-10 13-13 21 0-1 0-1 0-1-4-9-10-16-16-22-7-7-14-12-23-15-9-3-18-5-28-5-9 0-18 1-27 4-8 2-16 6-23 11-6 6-12 15-16 22-4 8-6 14-6 30l39 0c1-16 5-19 10-24 6-5 13-9 22-9 6 0 10 0 14 2 5 2 8 5 11 8 3 4 5 7 7 12 1 4 2 9 2 14 0 5-1 9-2 14-2 4-4 8-7 12-3 3-6 5-10 7-5 2-9 3-15 3-7 0-12-5-17-7-4-3-8 0-12-16l-36 0 19 112 103 0 0-32-74 0-8-43 0 0c6 6 11 10 18 12 6 2 13 4 20 4 10 0 19-2 26-6 7-3 14-8 19-14 4-4 6-9 9-15 3 8 7 16 13 22 5 6 12 11 21 15 8 4 17 6 27 6 9 0 17-2 24-4 7-3 13-6 19-10 6-5 12-10 17-15 6-6 11-11 16-18 5 6 10 12 15 18 5 5 11 10 17 15 6 4 13 7 20 10 7 2 14 4 23 4 10 0 19-2 27-6 9-3 16-8 21-15 6-6 10-13 13-22 3-8 5-18 5-28 0-10-2-19-5-28z m-342 29c0 0 0 0 0 0 1 0 2 0 3 0 1-1 1-3 1-4 0-2 0-3-1-4 0-1 0-1 0-2 0 0 0 0-1 0 0 0 0 1 0 1 0 3-1 6-2 9z"/>
<glyph unicode="&#57345;" d="M256 80c-5 0-9 2-12 5l-224 256c-6 7-5 17 1 23 7 6 17 5 23-1l212-243 212 243c6 6 16 7 23 1 6-6 7-16 1-23l-224-256c-3-3-7-5-12-5z"/>
<glyph unicode="&#57346;" d="M368 16c-4 0-7 1-11 4l-256 224c-3 3-5 7-5 12 0 5 2 9 5 12l256 224c7 6 17 5 23-1 6-7 5-17-1-23l-243-212 243-212c6-6 7-16 1-23-3-3-8-5-12-5z"/>
<glyph unicode="&#57347;" d="M144 24c-4 0-9 2-12 5-6 7-5 17 1 23l243 212-243 212c-6 6-7 16-1 23 6 6 16 7 23 1l256-224c3-3 5-7 5-12 0-5-2-9-5-12l-256-224c-3-3-7-4-11-4z"/>
<glyph unicode="&#57348;" d="M480 144c-4 0-9 2-12 5l-212 243-212-243c-6-6-16-7-23-1-6 6-7 16-1 23l224 256c6 6 18 6 24 0l224-256c6-7 5-17-1-23-3-3-7-4-11-4z"/>
<glyph unicode="&#57349;" d="M466 119c-7 0-15 3-20 9-6 6-9 14-9 23-3 14-75 52-149 57l0-52c0-26-36-37-54-24l-171 117c-9 7-15 17-15 28 0 9 5 17 12 22l175 118c4 3 11 5 18 5 17 0 35-11 35-30l0-48c72-6 206-38 206-195 0-17-12-30-28-30z m-384 156l171-117c1 0 2 1 3 1l0 66c0 9 8 17 17 16 63 0 159-30 188-68-14 115-123 138-190 140-8 1-15 8-15 16l0 60c-1 1-2 1-3 1z"/>
<glyph unicode="&#57350;" d="M60 119c-16 0-28 13-28 30 0 157 135 189 208 195l0 48c0 19 17 30 34 30 6 0 13-2 18-5l172-118c8-5 12-14 12-23 0-10-5-20-14-27l-170-117c-5-4-12-6-18-6-17 0-34 12-34 30l0 52c-74-5-147-43-150-58 0-20-15-31-30-31z m212 40c0-1 1-1 2-1l169 117-170 115c0 0-1 0-1 0l0-61c0-8-7-15-15-16-68-3-180-25-192-142 28 39 126 70 189 70 10 1 18-7 18-16z"/>
<glyph unicode="&#57351;" d="M440 216c-6 7-16 7-22 0l-146-145 0 393c0 9-7 16-16 16-9 0-16-7-16-16l0-393-146 145c-6 7-16 7-22 0-7-6-7-16 0-22l173-173c3-3 7-5 11-5 4 0 8 2 11 5l173 173c7 6 7 16 0 22z"/>
<glyph unicode="&#57352;" d="M464 272l-395 0 139 140c7 6 7 16 0 22-6 6-16 6-22 0l-165-165c-7-6-7-16 0-22l165-165c3-4 7-5 11-5 4 0 8 1 11 5 7 6 7 16 0 22l-136 136 392 0c9 0 16 7 16 16 0 9-7 16-16 16z"/>
<glyph unicode="&#57353;" d="M481 269l-165 165c-6 6-16 6-23 0-6-6-6-16 0-22l140-140-401 0c-9 0-16-7-16-16 0-9 7-16 16-16l397 0-136-136c-6-6-6-16 0-22 4-4 8-5 12-5 4 0 8 1 11 5l165 165c3 3 5 7 5 11 0 4-2 8-5 11z"/>
<glyph unicode="&#57354;" d="M440 304l-173 173c-6 6-16 6-22 0l-173-173c-7-6-7-16 0-22 6-7 16-7 22 0l146 145 0-395c0-9 7-16 16-16 9 0 16 7 16 16l0 395 146-145c3-4 7-5 11-5 4 0 8 1 11 5 7 6 7 16 0 22z"/>
<glyph unicode="&#57355;" d="M257 480c-124 0-225-101-225-224 0-124 101-224 224-224 33 0 65 8 99 25 8 4 11 14 7 22-4 8-13 11-21 7-30-15-57-22-85-22-106 0-192 86-192 192 0 106 87 192 193 192 105 0 191-87 191-192-3-41-25-63-45-62-17 1-35 19-35 57l0 82c0 9-7 16-16 16-9 0-16-7-16-16l0-4c-16 26-48 42-83 42-66 0-119-54-119-120 0-66 53-119 119-119 45 0 80 25 98 63 12-21 32-32 51-33 35-1 73 30 78 93 0 124-100 225-223 225z m-4-316c-48 0-87 39-87 87 0 48 39 88 87 88 46 0 77-36 77-88 0-51-31-87-77-87z"/>
<glyph unicode="&#57356;" d="M437 462c-7 0-13-2-19-5-1-1 2-1 1-1l-243-157 0 123c0 27-28 42-56 42l-43 0c-28 0-45-15-45-42l0-332c0-27 17-58 45-58l43 0c28 0 56 31 56 58l0 123 244-157c1 0 0 0 0-1 7-3 11-5 18-5 25 0 42 21 42 46l0 320c0 25-18 46-43 46z m-293-380c0-10-8-18-18-18l-44 0c-10 0-18 8-18 18l0 332c0 10 8 18 18 18l44 0c10 0 18-8 18-18z m304 14c0-11-8-16-16-12l-250 159c0 0 0 1-1 1-6 3-7 10-7 12 0 3 1 9 8 12 0 0 1 1 2 1l248 160c8 3 16-2 16-13z"/>
<glyph unicode="&#57357;" d="M170 240l-58 0 0-64 57 0c5 0 10 0 15 1 5 1 10 2 14 5 3 2 7 5 9 10 2 4 3 9 3 16 0 13-4 20-11 26-7 6-17 6-29 6z m20 53c7 4 10 11 10 22 0 6-3 11-6 14-8 8-28 7-33 7l-49 0 0-48 53 0c10 0 19 0 25 5z m305-33c-4 17-11 33-21 46-6 8-10 15-17 21 3 5 7 11 7 17l0 25c0 18-19 31-37 31l-103 0c-18 0-36-13-36-31l0-25c0-7 4-13 8-19-4-3-7-6-10-10 0 3 0 5 0 8 0 17-3 32-9 44-6 13-15 24-27 32-11 7-23 11-37 14-12 3-26 3-40 3l-121 0c-18 0-36-12-36-30l0-256c0-17 18-34 36-34l124 0c14 0 28 3 42 7 14 3 28 10 39 18 8 6 14 12 20 19 3-3 5-6 8-10 12-12 26-21 42-27 15-6 32-9 51-9 27 0 51 6 71 19 21 14 36 36 46 65 2 6 2 12 1 17 2 4 3 9 4 14 1 17-1 35-5 51z m-236-89c-5-9-12-17-20-23-9-6-19-12-29-14-11-3-22-6-34-6l-128 0 0 256 125 0c12 0 23 0 33-2 10-2 19-5 26-10 7-5 13-11 17-19 4-8 6-18 6-30 0-13-3-24-9-32-6-9-15-16-26-21 15-5 27-13 35-24 8-12 11-25 11-41 0-13-2-24-7-34z m61 197l112 0 0-32-112 0z m27-195c7-7 18-10 33-10 10 0 18 2 26 7 7 5 12 6 14 22l45 0c-8-32-19-40-33-50-15-9-33-15-54-15-15 0-28 2-40 6-11 5-21 11-30 20-8 9-14 19-18 31-5 12-7 25-7 39 0 14 2 27 7 39 4 12 11 22 19 31 9 9 19 15 30 20 12 5 25 8 39 8 16 0 29-3 41-9 12-6 21-14 29-25 8-10 13-23 16-36 4-13 5-27 4-43l-134 0c0-16 5-27 13-35z m29 110c-8 0-14-2-20-5-5-2-9-6-13-10-3-4-5-10-7-14-1-5-2-14-2-14l83 0c-1 16-6 24-12 31-6 6-16 12-29 12z"/>
<glyph unicode="&#57358;" d="M208 448l96 0 0-32-96 0z m272 0l-16 0 0-128-416 0 0 128-16 0c-9 0-16-7-16-16l0-346c0-39 31-70 70-70l340 0c39 0 70 31 70 70l0 346c0 9-7 16-16 16z m-54-400l-340 0c-21 0-38 17-38 38l0 202 416 0 0-202c0-21-17-38-38-38z m-298 304c26 0 48 22 48 48l0 48c0 26-22 48-48 48-26 0-48-22-48-48l0-48c0-26 22-48 48-48z m-16 96c0 9 7 16 16 16 9 0 16-7 16-16l0-48c0-9-7-16-16-16-9 0-16 7-16 16z m272-96c26 0 48 22 48 48l0 48c0 26-22 48-48 48-26 0-48-22-48-48l0-48c0-26 22-48 48-48z m-16 96c0 9 7 16 16 16 9 0 16-7 16-16l0-48c0-9-7-16-16-16-9 0-16 7-16 16z"/>
<glyph unicode="&#57359;" d="M208 448l96 0 0-32-96 0z m272 0l-16 0 0-128-416 0 0 128-16 0c-9 0-16-7-16-16l0-346c0-39 31-70 70-70l340 0c39 0 70 31 70 70l0 346c0 9-7 16-16 16z m-54-400l-340 0c-21 0-38 17-38 38l0 202 416 0 0-202c0-21-17-38-38-38z m-298 304c26 0 48 22 48 48l0 48c0 26-22 48-48 48-26 0-48-22-48-48l0-48c0-26 22-48 48-48z m-16 96c0 9 7 16 16 16 9 0 16-7 16-16l0-48c0-9-7-16-16-16-9 0-16 7-16 16z m272-96c26 0 48 22 48 48l0 48c0 26-22 48-48 48-26 0-48-22-48-48l0-48c0-26 22-48 48-48z m-16 96c0 9 7 16 16 16 9 0 16-7 16-16l0-48c0-9-7-16-16-16-9 0-16 7-16 16z m-128-336l-47 0c11 12 24 26 37 41 19 24 21 56 3 76-14 16-42 25-79 1-7-4-9-14-5-22 5-7 15-9 23-5 16 11 30 12 37 5 6-7 7-22-4-34-29-35-60-66-60-67-5-4-6-11-4-17 3-6 9-10 15-10l84 0c9 0 16 7 16 16 0 9-7 16-16 16z m120 54c11 11 14 25 14 35 0 17-9 31-24 39-22 11-56 7-78-9-7-6-8-16-3-23 6-7 16-8 23-3 11 9 33 12 44 6 4-2 6-5 6-10 0-10-3-21-37-21-9 0-16-7-16-16 0-8 7-16 16-16 9 0 41-1 41-18 0-5-3-10-9-13-12-7-33-9-49 0-8 4-18 1-22-6-4-8-2-18 6-22 12-7 27-10 41-10 14 0 28 3 40 10 16 9 25 24 25 41 0 15-6 27-18 36z"/>
<glyph unicode="&#57360;" d="M264 123c-69 0-125 56-125 125 0 69 56 125 125 125 69 0 125-56 125-125 0-69-56-125-125-125z m0 218c-51 0-93-42-93-93 0-51 42-93 93-93 51 0 93 42 93 93 0 51-42 93-93 93z m182-261l-364 0c-28 0-50 22-50 50l0 236c0 28 22 50 50 50l66 0 3 19c4 25 26 45 50 45l126 0c24 0 46-20 50-45l3-19 66 0c28 0 50-22 50-50l0-236c0-28-22-50-50-50z m-364 304c-10 0-18-8-18-18l0-236c0-10 8-18 18-18l364 0c10 0 18 8 18 18l0 236c0 10-8 18-18 18l-79 0c-8 0-15 6-16 13l-5 32c-2 11-12 19-19 19l-126 0c-7 0-17-8-19-19l-5-32c-1-7-8-13-16-13z m30 48l-32 0c-9 0-16 7-16 16 0 9 7 16 16 16l32 0c9 0 16-7 16-16 0-9-7-16-16-16z"/>
<glyph unicode="&#57361;" d="M427 323c0-13-1-25-4-37 19-18 31-42 31-68 0-29-5-52-31-69-4-3-7-8-7-13l0-45-42 26c-2 1-5 2-8 2-1 0-3 0-4-1-12-2-25-4-38-4-32 0-60 9-83 24-11-2-23-3-34-3-4 0-8 0-12 0 30-32 76-53 129-53 13 0 27 1 39 4l61-37c2-1 5-2 8-2 3 0 5 1 8 2 5 3 8 8 8 14l0 65c33 26 38 60 38 90 0 42-23 80-59 105z m-331-197c-3 0-5 1-8 2-5 3-8 9-8 14l0 78c-32 27-49 64-49 104 0 87 80 156 182 156 103 0 186-70 186-156 0-87-82-157-184-157-15 0-29 2-44 5l-66-43c-3-2-6-3-9-3z m117 322c-84 0-150-55-150-124 0-33 15-62 43-84 4-3 6-8 6-13l0-55 47 30c4 3 8 4 13 3 15-4 28-6 43-6 84 0 152 56 152 125 0 68-69 124-154 124z"/>
<glyph unicode="&#57362;" d="M96 27c-3 0-5 1-8 2-5 3-8 8-8 14l0 103c-43 32-65 78-65 134 0 112 103 200 234 200 131 0 238-90 238-200 0-110-106-199-236-199-20 0-38 2-58 6l-88-57c-3-2-6-3-9-3z m153 421c-113 0-202-74-202-168 0-49 19-86 58-113 4-3 7-7 7-13l0-81 69 45c3 2 8 3 12 2 21-5 38-7 58-7 113 0 204 75 204 167 0 93-92 168-206 168z"/>
<glyph unicode="&#57363;" d="M265 480c-131 0-234-88-234-200 0-56 22-101 65-134l0-103c0-6 3-11 8-14 3-1 5-2 8-2 3 0 6 1 9 3l88 57c20-4 38-6 58-6 130 0 236 89 236 199 0 110-107 200-238 200z m2-367c-20 0-37 2-58 7-4 1-9 0-12-2l-69-45 0 81c0 6-3 10-7 13-39 27-58 64-58 113 0 94 89 168 202 168 114 0 206-75 206-168 0-92-91-167-204-167z m117 239l-224 0c-9 0-16-7-16-16 0-9 7-16 16-16l224 0c9 0 16 7 16 16 0 9-7 16-16 16z m-224-96l160 0c9 0 16 7 16 16 0 9-7 16-16 16l-160 0c-9 0-16-7-16-16 0-9 7-16 16-16z m208-32l-208 0c-9 0-16-7-16-16 0-9 7-16 16-16l208 0c9 0 16 7 16 16 0 9-7 16-16 16z"/>
<glyph unicode="&#57364;" d="M249 480c-131 0-234-88-234-200 0-56 22-101 65-134l0-103c0-6 3-11 8-14 3-1 5-2 8-2 3 0 6 1 9 3l88 57c20-4 38-6 58-6 130 0 236 89 236 199 0 110-107 200-238 200z m2-367c-20 0-37 2-58 7-4 1-9 0-12-2l-69-45 0 81c0 6-3 10-7 13-39 27-58 64-58 113 0 94 89 168 202 168 114 0 206-75 206-168 0-92-91-167-204-167z m-85 160c0-17-14-31-31-31-17 0-31 14-31 31 0 17 14 31 31 31 17 0 31-14 31-31z m115 0c0-17-14-31-31-31-17 0-31 14-31 31 0 17 14 31 31 31 17 0 31-14 31-31z m115 0c0-17-14-31-31-31-17 0-31 14-31 31 0 17 14 31 31 31 17 0 31-14 31-31z"/>
<glyph unicode="&#57365;" d="M215 32c-5 0-10-1-13 4l-150 214c-5 7-4 16 4 21l78 56c3 2 8 3 12 2 4-1 8-3 10-7l55-82 168 244c3 4 6 6 11 7 4 1 8 0 12-3l79-54c7-5 9-15 4-22l-257-376c-3-5-8-4-13-4 0 0 0 0 0 0z m-128 222l128-184 234 347-52 36-173-250c-3-5-7-8-13-7-6 0-10 2-13 7l-59 88z"/>
<glyph unicode="&#57366;" d="M228 80c-1 0-1 0-1 0-5 0-10 3-13 7l-91 142c-5 7-3 17 4 22 8 5 18 2 22-5l79-121 207 300c5 7 15 9 22 4 7-5 9-15 4-22l-220-320c-3-4-8-7-13-7z"/>
<glyph unicode="&#57367;" d="M171 56c-3 0-5 0-8 0-32 2-60 16-81 41l-2 2c-29 30-43 66-39 105 4 36 22 72 52 103l95 96c50 49 111 49 161 0 21-22 30-49 25-79-4-25-19-51-41-73l-103-103c-27-27-71-27-98 0-27 27-27 71 0 98l100 100c6 6 16 6 23 0 6-6 6-16 0-22l-101-101c-14-14-14-38 0-52 15-15 39-15 53 0l104 103c17 17 28 37 31 56 4 19-2 36-16 50-50 50-94 22-115 0l-95-96c-25-25-40-54-43-83-3-29 7-57 30-79l3-3c16-19 36-30 59-31 34-2 71 14 104 44l115 115c46 47 62 139 13 188l-2 1c-6 7-6 17 0 23 6 6 16 6 23 0l1-1c63-63 46-175-12-233l-116-116c-37-34-80-53-120-53z"/>
<glyph unicode="&#57368;" d="M256 496c-132 0-240-108-240-240 0-132 108-240 240-240 132 0 240 108 240 240 0 132-108 240-240 240z m0-448c-115 0-208 93-208 208 0 115 93 208 208 208 115 0 208-93 208-208 0-115-93-208-208-208z m16 202l0 182c0 9-7 16-16 16-9 0-16-7-16-16l0-189c0-4 2-8 5-11l91-90c3-3 7-4 11-4 4 0 8 1 11 5 6 6 6 16 0 22z"/>
<glyph unicode="&#57369;" d="M402 112l-301 0c-48 0-85 42-85 98l0 10c0 44 26 79 64 89l0 15c0 76 62 140 136 140l17 0c51 0 98-31 121-77 41-7 75-40 84-81 35-15 58-49 58-86l0-10c0-53-43-98-94-98z m-290 198c2-3 5-7 5-12 0-4-1-9-4-12-3-3-7-5-11-5-31-2-54-28-54-61l0-10c0-32 19-66 53-66l301 0c33 0 62 31 62 66l0 10c0 27-18 51-44 58-6 2-11 7-12 14-4 34-33 62-66 64-6 0-11 4-14 10-16 39-54 66-95 66l-17 0c-55 0-104-50-104-108z"/>
<glyph unicode="&#57370;" d="M438 308c-9 41-43 73-84 80-23 46-69 76-121 76l-17 0c-74 0-136-63-136-138l0-14c-38-11-64-46-64-90l0-9c0-50 32-101 85-101l44 0-12 12c-6 6-10 13-12 20l-20 0c-33 0-53 35-53 69l0 9c0 34 23 60 54 61 4 0 8 2 11 6 3 3 4 7 4 11 0 6-3 9-5 13l0 13c0 58 48 106 104 106l17 0c41 0 79-26 95-65 3-6 8-9 14-10 34-2 62-29 66-63 1-6 6-11 12-13 26-8 44-32 44-59l0-9c0-36-29-69-62-69l-7 0c-2-7-6-14-12-20l-12-12 31 0c50 0 94 47 94 101l0 9c0 38-23 72-58 86z m-100-139l-66-66 0 217c0 9-7 16-16 16-9 0-16-7-16-16l0-213-62 62c-6 6-17 6-23 0-6-6-6-16 0-22l92-92c3-3 7-5 11-5 4 0 8 2 11 5l92 92c6 6 6 16 0 22-7 6-17 6-23 0z"/>
<glyph unicode="&#57371;" d="M438 308c-9 41-43 73-84 80-23 46-69 76-121 76l-17 0c-74 0-136-63-136-138l0-14c-38-11-64-46-64-90l0-9c0-50 32-101 85-101l75 0 0 32-75 0c-33 0-53 35-53 69l0 9c0 34 23 60 54 61 4 0 8 2 11 6 3 3 4 7 4 11 0 6-3 9-5 13l0 13c0 58 48 106 104 106l17 0c41 0 79-26 95-65 3-6 8-9 14-10 34-2 62-29 66-63 1-6 6-11 12-13 26-8 44-32 44-59l0-9c0-36-29-69-62-69l-66 0 0-32 66 0c50 0 94 47 94 101l0 9c0 38-23 72-58 86z m-100-83c3-3 7-5 11-5 5 0 9 2 12 5 6 6 6 16 0 22l-92 92c-6 6-16 6-22 0l-92-92c-6-6-6-16 0-22 6-6 17-6 23 0l62 62 0-223c0-9 7-16 16-16 9 0 16 7 16 16l0 227z"/>
<glyph unicode="&#57372;" d="M284 252l146 146c6 6 6 16 0 23-6 6-16 6-23 0l-145-146-146 146c-7 6-17 6-23 0-6-7-6-17 0-23l146-146-146-146c-6-6-6-16 0-22 3-4 7-5 11-5 5 0 9 1 12 5l146 145 145-145c4-4 8-5 12-5 4 0 8 1 11 5 6 6 6 16 0 22z"/>
<glyph unicode="&#57373;" d="M464 376c21-36 32-76 32-120 0-44-11-84-32-120-22-37-51-66-88-88-36-21-76-32-120-32-44 0-84 11-120 32-37 22-66 51-88 88-21 36-32 76-32 120 0 44 11 84 32 120 22 37 51 66 88 88 36 21 76 32 120 32 44 0 84-11 120-32 37-22 66-51 88-88z m-186-119c-4 10-10 22-16 35-65-20-135-29-211-29 0-2 0-4 0-7 0-26 5-50 14-74 9-23 22-44 39-63 10 19 23 36 38 52 15 16 30 29 45 39 14 10 28 18 40 25 13 7 24 12 32 15l11 4c1 1 2 1 4 2 2 0 3 1 4 1z m-33 66c-25 45-51 84-76 118-29-13-54-33-74-58-20-25-33-53-40-85 63 0 126 9 190 25z m91-256c-9 50-23 102-44 156l0 0-1 0c-3-2-8-3-13-6-6-2-17-7-32-15-15-8-30-16-43-26-13-9-27-21-41-35-14-15-25-31-32-47l-5 4c39-31 82-47 131-47 28 0 54 5 80 16z m-129 388c0 0 0 0-1 0 1 0 1 0 1 0z m184-45c-38 34-83 51-135 51-16 0-32-2-48-6 27-35 52-75 76-119 15 5 28 11 41 19 13 7 23 13 30 19 8 5 14 11 21 18 6 6 10 10 11 12 2 2 3 4 4 6z m70-152c-1 49-16 91-47 128l0 0c-2-2-4-5-6-8-2-2-6-7-13-14-7-6-15-13-23-18-7-6-18-13-31-21-13-7-27-14-41-20 5-11 10-21 14-30 0-1 1-3 2-5 1-2 2-4 2-5 8 1 15 2 24 2 8 0 15 1 22 1 8 0 15-1 22-1 7 0 14-1 20-1 6-1 12-1 18-2 5 0 10-1 15-2 4-1 8-1 11-2 3 0 6-1 8-1z m-3-34c-43 12-86 15-127 9 18-50 31-99 40-147 23 16 42 35 57 59 16 24 26 50 30 79z"/>
<glyph unicode="&#57374;" d="M480 259c0 0 0 1 0 2 0 1 0 2 0 3-1 1-1 1-1 2 0 1-1 3-2 4 0 0 0 1 0 1 0 0 0 0 0 0 0 0 0 0 0 0 0 0-1 0-1 0-6 9-102 133-228 133 0 0-1 0-1 0-1 0-1 0-2 0-127 0-227-127-231-133-4-6-4-14 0-19 4-6 104-134 231-134 128 0 227 128 232 134 0 0 0 1 1 2 0 0 1 1 1 2 0 1 0 2 1 3z m-174 2c0-33-27-60-61-60-33 0-60 27-60 60 0 22 12 41 29 52 11 1 22 2 34 2 9 0 18-1 27-2 18-10 31-29 31-52z m-58 86c-49 0-93-11-130-24 35 26 80 49 129 49 48 0 92-23 128-48-36 13-80 23-127 23z m-3-197c-87 0-163 73-192 106 18 11 59 34 111 47-7-12-11-26-11-42 0-51 41-92 92-92 51 0 93 41 93 92 0 16-5 31-12 44 52-13 93-35 114-47-28-32-106-108-195-108z"/>
<glyph unicode="&#57375;" d="M448 16l-96 0c-9 0-16 7-16 16l0 176c0 9 7 16 16 16l45 0 5 48-50 0c-9 0-16 7-16 16l0 38c0 37 25 42 52 42l28 0 0 39c-10 1-24 1-38 1-47 0-74-27-74-75l0-45c0-9-7-16-16-16l-48 0 0-48 48 0c9 0 16-7 16-16l0-176c0-9-7-16-16-16l-224 0c-5 0-11 1-16 3-13 5-23 15-28 27-3 6-4 12-4 18l0 384c0 26 22 48 48 48l384 0c26 0 48-22 48-48l0-384c0-26-22-48-48-48z m-80 32l80 0c9 0 16 7 16 16l0 384c0 9-7 16-16 16l-384 0c-9 0-16-7-16-16l0-384c0-2 0-4 1-6 2-3 6-7 10-9 2-1 3-1 5-1l208 0 0 144-48 0c-9 0-16 7-16 16l0 80c0 9 7 16 16 16l48 0 0 29c0 65 42 107 106 107 61 0 70-2 70-18l0-70c0-9-7-16-16-16l-44 0c-15 0-19-2-19-2 0 0-1-2-1-8l0-22 52 0c5 0 9-2 12-5 3-4 5-8 4-13l-9-80c-1-8-8-14-16-14l-43 0z"/>
<glyph unicode="&#57376;" d="M484 287l-205 205c-7 8-17 12-28 12-10 0-20-4-27-12l-196-196c-8-7-12-17-12-27 0-11 4-21 12-28l205-205c7-8 17-12 28-12 10 0 20 4 27 12l196 196c8 7 12 17 12 27 0 11-4 21-12 28z m-86-97l-23 24 23 23 23-23z m-46-45l-23 23 23 23 23-23z m-46-46l-23 23 23 23 24-23z m-91 0l-124 124 87 87 124-124z m-101 239l23-24-23-23-23 23z m46 45l23-23-23-23-23 23z m46 46l23-23-23-23-24 23z m119-220l-124 124 96 96 124-124z m-74 263c2 0 4 0 6-2l18-18-24-23-23 23 18 18c2 2 4 2 5 2z m-203-203c0 1 0 3 2 5l18 18 23-23-23-24-18 18c-2 2-2 4-2 6z m213-213c-2 0-4 0-6 2l-18 18 24 23 23-23-18-18c-2-2-4-2-5-2z m201 198l-18-18-23 23 23 24 18-18c2-2 2-4 2-6 0-1 0-3-2-5z"/>
<glyph unicode="&#57377;" d="M396 16l-280 0c-27 0-51 10-71 29-19 20-29 44-29 71l0 280c0 27 10 51 29 71 20 19 44 29 71 29l280 0c27 0 51-10 71-29 19-20 29-44 29-71l0-280c0-27-10-51-29-71-20-19-44-29-71-29z m-280 448c-19 0-35-7-48-20-13-13-20-29-20-48l0-280c0-19 7-35 20-48 13-13 29-20 48-20l280 0c19 0 35 7 48 20 13 13 20 29 20 48l0 280c0 19-7 35-20 48-13 13-29 20-48 20z m222-286c-21 0-40 8-55 23-15 15-23 34-23 55 0 21 8 40 23 55 15 15 34 23 55 23 22 0 40-8 55-23 15-15 23-34 23-55 0-21-8-40-23-55-15-15-33-23-55-23z m0 124c-13 0-23-5-32-14-9-9-14-19-14-32 0-13 5-23 14-32 9-9 19-14 32-14 13 0 24 5 33 14 9 9 13 19 13 32 0 13-4 23-13 32-9 9-20 14-33 14z m-164-124c-22 0-40 8-55 23-15 15-23 34-23 55 0 21 8 40 23 55 15 15 33 23 55 23 21 0 40-8 55-23 15-15 23-34 23-55 0-21-8-40-23-55-15-15-34-23-55-23z m0 124c-13 0-24-5-33-14-9-9-13-19-13-32 0-13 4-23 13-32 9-9 20-14 33-14 13 0 23 5 32 14 9 9 14 19 14 32 0 13-5 23-14 32-9 9-19 14-32 14z"/>
<glyph unicode="&#57378;" d="M414 64l-316 0c-32 0-66 33-66 65l0 289c0 21 25 46 47 46l139 0c22 0 38-24 38-46l0-34 208 0c9 0 16-7 16-16l0-239c0-32-34-65-66-65z m-197 368l-138 0c-4 0-15-10-15-14l0-289c0-14 19-33 34-33l316 0c15 0 34 19 34 33l0 223-208 0c-9 0-16 7-16 16l0 50c0 6-5 13-7 14z"/>
<glyph unicode="&#57379;" d="M437 464l-107 0c-22 0-42-24-42-46l0-2 32 0 0 2c0 4 6 14 10 14l107 0c4 0 11-10 11-14l0-2 16 0c4 0 16-1 16-2l0 4c0 22-21 46-43 46z m27-80l-208 0 0 34c0 22-16 46-38 46l-139 0c-22 0-47-25-47-46l0-289c0-32 34-65 66-65l316 0c32 0 66 33 66 65l0 239c0 9-7 16-16 16z m-16-255c0-14-19-33-34-33l-316 0c-15 0-34 19-34 33l0 289c0 4 11 14 15 14l138 0c2-1 7-8 7-14l0-50c0-9 7-16 16-16l208 0z"/>
<glyph unicode="&#57380;" d="M430 464l-43 0c-28 0-51-7-51-34l0-123-230 157c-1 0-1 0-2 1-6 3-16 5-23 5-26 0-49-21-49-46l0-320c0-25 23-46 49-46 7 0 15 2 22 5 0 1 1 1 2 1l231 157 0-123c0-27 23-66 51-66l43 0c28 0 50 39 50 66l0 332c0 27-22 34-50 34z m-105-212c0 0-1-1-1-1l-238-159c-8-4-22 1-22 12l0 320c0 8 10 14 17 14 1 0 5-1 6-2l236-159c0 0 1-1 2-1 7-3 8-10 8-12 0-3-1-9-8-12z m123-170c0-10-8-18-18-18l-44 0c-10 0-18 8-18 18l0 332c0 10 8 18 18 18l44 0c10 0 18-8 18-18z"/>
<glyph unicode="&#57381;" d="M444 32l-376 0c-29 0-52 23-52 52l0 344c0 29 23 52 52 52l376 0c29 0 52-23 52-52l0-344c0-29-23-52-52-52z m-376 416c-11 0-20-9-20-20l0-344c0-11 9-20 20-20l376 0c11 0 20 9 20 20l0 344c0 11-9 20-20 20z"/>
<glyph unicode="&#57382;" d="M411 432l-294 0c-25 0-53-23-53-54l0-228c0-31 28-54 53-54l294 0c25 0 53 23 53 54l0 228c0 31-28 54-53 54z m21-282c0-12-12-22-21-22l-294 0c-9 0-21 10-21 22l0 228c0 12 12 22 21 22l294 0c9 0 21-10 21-22z m-32 90c-9 0-16-7-16-16l0-25-49 50c-6 7-16 7-22 1-6-6-7-17 0-23l49-51-26 0c-9 0-16-7-16-16 0-9 7-16 16-16l64 0c2 0 4 0 6 1 1 1 2 1 3 2 1 1 2 1 2 2 0 0 0 0 0 0 2 1 3 3 4 5 0 0 0 0 0 0 0 0 0 0 0 0 1 2 1 4 1 6 0 0 0 0 0 0l0 64c0 9-7 16-16 16z m-202 9l-54-53 0 28c0 9-7 16-16 16-9 0-16-7-16-16l0-64c0-9 7-16 16-16l64 0c9 0 16 7 16 16 0 9-7 16-16 16l-23 0 51 50c7 6 7 16 1 22-7 7-17 7-23 1z m202 135l-64 0c-9 0-16-7-16-16 0-9 7-16 16-16l28 0-51-53c-7-6-6-16 0-22 3-3 7-5 11-5 4 0 8 2 11 5l49 50 0-23c0-9 7-16 16-16 9 0 16 7 16 16l0 64c0 9-7 16-16 16z m-233-32l25 0c9 0 16 7 16 16 0 9-7 16-16 16l-64 0c-9 0-16-7-16-16l0-64c0-9 7-16 16-16 9 0 16 7 16 16l0 26 54-52c3-3 7-5 11-5 4 0 8 2 12 5 6 6 6 16-1 23z"/>
<glyph unicode="&#57383;" d="M411 432l-294 0c-25 0-53-23-53-54l0-228c0-31 28-54 53-54l294 0c25 0 53 23 53 54l0 228c0 31-28 54-53 54z m21-282c0-12-12-22-21-22l-294 0c-9 0-21 10-21 22l0 228c0 12 12 22 21 22l294 0c9 0 21-10 21-22z m-224 218c-9 0-16-7-16-16l0-29-48 54c-6 7-16 7-23 1-6-6-7-16-1-22l46-52-22 0c-9 0-16-7-16-16 0-9 7-16 16-16l64 0c9 0 16 7 16 16l0 64c0 9-7 16-16 16z m175 9l-47-52 0 27c0 9-7 16-16 16-9 0-16-7-16-16l0-64c0-9 7-16 16-16l64 0c9 0 16 7 16 16 0 9-7 16-16 16l-24 0 47 52c5 6 5 16-2 22-6 6-16 6-22-1z m-175-121l-64 0c-9 0-16-7-16-16 0-9 7-16 16-16l29 0-53-58c-6-7-5-17 1-23 3-3 7-4 11-4 4 0 9 2 12 5l48 54 0-22c0-9 7-16 16-16 9 0 16 7 16 16l0 64c0 9-7 16-16 16z m146-32l30 0c9 0 16 7 16 16 0 9-7 16-16 16l-64 0c-9 0-16-7-16-16l0-64c0-9 7-16 16-16 9 0 16 7 16 16l0 20 47-52c3-3 7-5 12-5 3 0 7 1 10 4 7 6 7 16 2 23z"/>
<glyph unicode="&#57384;" d="M430 320l-4 0c-3 9-6 18-10 26l3 3c13 14 13 36 0 49l-36 37c-13 13-37 12-48 1l-5-4c-8 4-17 7-26 10l0 4c0 20-12 34-30 34l-52 0c-18 0-30-14-30-34l0-4c-9-3-18-6-26-10l-3 3c-13 13-36 13-49 0l-37-36c-13-14-13-36-1-48l4-5c-4-8-7-17-10-26l-4 0c-20 0-34-12-34-30l0-52c0-18 14-30 34-30l4 0c3-9 6-18 10-26l-3-3c-13-14-13-36 0-49l36-37c13-13 37-12 48-1l5 4c8-4 17-7 26-10l0-4c0-20 12-34 30-34l52 0c18 0 30 14 30 34l0 4c9 3 18 6 26 10l3-3c13-13 36-13 49 0l37 36c13 14 13 36 1 48l-4 5c4 8 7 17 10 26l4 0c20 0 34 12 34 30l0 52c0 18-14 30-34 30z m2-80c-1 0-1 0-2 0l-16 0c-7 0-14-5-15-12-4-15-10-29-16-40-4-6-3-14 1-19l12-14c1-1 1-2 0-3l-37-36c-1-2-2-2-4 0l-12 11c-5 5-13 6-19 2-11-6-25-12-40-16-7-1-12-8-12-15l0-16c0-1 0-1 0-2l-48 0c0 1 0 1 0 2l0 16c0 7-5 14-12 15-15 4-29 10-40 16-6 4-14 3-19-1l-13-11c0-1-2-1-2-2-1 0-1 0-2 1l-36 37c-1 1-1 2 0 4l11 12c5 5 6 13 2 19-6 11-12 25-16 40-1 7-8 12-15 12l-16 0c-1 0-1 0-2 0l0 48c1 0 1 0 2 0l16 0c7 0 14 5 15 12 4 15 10 29 16 40 4 6 3 14-1 19l-12 14c-1 1-1 2 0 3l37 36c1 2 2 2 4 0l12-11c5-5 13-6 19-2 11 6 25 12 40 16 7 1 12 8 12 15l0 16c0 1 0 1 0 2l48 0c0-1 0-1 0-2l0-16c0-7 5-14 12-15 15-4 29-10 40-16 6-4 14-3 19 1l13 11c0 1 2 1 2 2 1 0 1 0 2-1l36-37c1-1 1-2 0-4l-11-12c-5-5-6-13-2-19 6-11 12-25 16-40 1-7 8-12 15-12l16 0c1 0 1 0 2 0l0-48z m-184 148c-68 0-124-56-124-124 0-68 56-124 124-124 68 0 124 56 124 124 0 68-56 124-124 124z m0-216c-51 0-92 41-92 92 0 51 41 92 92 92 51 0 92-41 92-92 0-51-41-92-92-92z"/>
<glyph unicode="&#57385;" d="M481 400l-65 0 0 64c0 0 0-1 1 0l-32 0c-4 0-17 4-17 0l0-64-46 0c-5 0-18 5-18 0l0-31c0-5 13-17 18-17l46 0 0-47c0-5 13-17 17-17l32 0c5 0-1 12-1 17l0 47 65 0c4 0-1 12-1 17l0 31c1 1 1 0 1 0z m-201-195c-5 7-10 12-16 18-5 5-11 10-16 14-6 4-10 8-15 12-3 3-7 7-9 10-2 3-3 6-3 8 0 5 2 9 5 12 3 5 7 10 12 14 6 5 12 11 17 17 6 6 12 15 16 25 4 11 6 23 6 36 0 16-3 29-10 43-4 8-8 18-13 18l12 0c1 0 2 3 4 3l33 21c3 2 5 2 4 6-1 3-4 2-8 2l-108 0c-16 0-33 2-49-1-24-6-45-16-62-36-17-20-26-41-26-66 0-27 10-49 29-67 19-18 43-26 69-26 2 0 4 0 6 0 0-1-1-3-1-5-1-2-1-5-1-7 0-9 3-19 9-30-8 0-16-1-23-3-13-2-26-5-40-9-14-4-27-10-39-19-11-8-20-18-26-30-7-13-10-26-10-37 0-13 3-24 9-34 5-10 12-19 21-25 8-6 18-11 29-15 11-4 21-7 32-9 10-2 21-3 31-3 46 0 83 12 109 35 25 22 38 47 38 76 0 10-2 20-5 29-3 9-6 17-11 23z m-80 202c5-10 9-21 11-31 3-11 4-21 4-30 0-15-3-27-9-35-6-8-15-12-29-12-7 0-13 2-20 5-6 4-12 9-17 15-5 6-9 14-13 22-4 8-6 16-8 24-2 8-3 16-3 23 0 14 4 26 11 36 7 10 17 14 30 14 9 0 17-3 25-8 7-6 14-14 18-23z m-17-211c4 0 7 0 9 0 2-1 3-3 6-4l8-6c2-1 4-3 8-6 3-2 6-4 7-6 2-1 4-3 7-6 3-3 5-5 5-6l6-7c1-3 2-5 3-7 1-2 1-5 2-8 1-3 1-6 1-8 0-9-2-17-6-24-4-6-9-11-15-15-7-4-15-7-23-9-17-4-37-4-56 1-10 2-19 6-28 10-8 5-15 11-20 19-5 7-8 16-8 25 0 9 2 16 6 23 4 7 8 12 14 16 7 4 14 8 23 10 9 3 17 5 25 6 9 1 17 2 26 2z"/>
<glyph unicode="&#57386;" d="M252 32c0 0 0 0 0 0-5 16-9 6-12 9l-192 212c-21 25-32 56-32 88 0 73 57 130 130 130 50 0 87-26 107-60 22 36 66 61 113 61 72 0 130-59 130-131 0-35-13-68-38-93l-195-207c-3-3-7-9-11-9z m-106 408c-55 0-98-43-98-98 0-24 9-47 24-65l180-198 183 192c19 19 29 44 29 70 0 55-44 99-98 99-56 0-98-44-98-84 0-9-7-16-16-16-9 0-16 7-16 16 0 40-35 84-90 84z"/>
<glyph unicode="&#57387;" d="M479 232c-4 0-8 2-11 5l-204 203-204-203c-6-7-16-7-22 0-7 6-7 16 0 22l215 215c6 7 16 7 22 0l215-215c7-6 7-16 0-22-3-3-7-5-11-5z m-63-216l-96 0c-9 0-16 7-16 16l0 132c0 6-6 12-12 12l-56 0c-6 0-12-6-12-12l0-132c0-9-7-16-16-16l-96 0c-9 0-16 7-16 16l0 208c0 9 7 16 16 16 9 0 16-7 16-16l0-192 64 0 0 116c0 24 20 44 44 44l56 0c24 0 44-20 44-44l0-116 64 0 0 192c0 9 7 16 16 16 9 0 16-7 16-16l0-208c0-9-7-16-16-16z"/>
<glyph unicode="&#57388;" d="M496 424c0 40-32 72-72 72l-336 0c-40 0-72-32-72-72l0-336c0-40 32-72 72-72l336 0c40 0 72 32 72 72z m-448 0c0 22 18 40 40 40l332 0c23 0 44-18 44-40l0-120-84 0c-19 49-66 84-122 84-55 0-103-35-121-84l-89 0z m308-166c0-54-44-98-98-98-54 0-98 44-98 98 0 54 44 98 98 98 54 0 98-44 98-98z m64-210l-332 0c-22 0-40 21-40 44l0 180 81 0c0-5-1-9-1-14 0-71 59-130 130-130 72 0 130 59 130 130 0 5 0 9-1 14l77 0 0-180c0-23-21-44-44-44z m-36 304l32 0c18 0 32 14 32 32l0 32c0 18-14 32-32 32l-32 0c-18 0-32-14-32-32l0-32c0-18 14-32 32-32z m32 64l0-32-32 0 0 32z"/>
<glyph unicode="&#57389;" d="M256 499c-132 0-240-108-240-240 0-133 108-240 240-240 132 0 240 107 240 240 0 132-108 240-240 240z m185-334l-63 63c2 10 4 20 4 31 0 11-2 21-5 31l64 64c15-29 23-61 23-95 0-34-8-66-23-94z m-185 0c-52 0-94 42-94 94 0 51 42 93 94 93 52 0 94-42 94-93 0-52-42-94-94-94z m167 217l-59-60c-11 19-27 34-45 45l59 60c17-13 33-28 45-45z m-73 62l-63-64c-10 3-20 4-31 4-11 0-21-1-31-4l-63 64c28 14 60 23 94 23 34 0 66-9 94-23z m-216-17l59-60c-18-11-34-26-45-45l-59 60c12 17 28 32 45 45z m-63-73l64-64c-3-10-5-20-5-31 0-11 2-21 4-31l-63-63c-15 28-23 60-23 94 0 34 8 66 23 95z m17-217l59 59c11-19 27-34 45-45l-59-60c-17 13-32 28-45 46z m73-63l63 63c11-2 21-4 32-4 11 0 21 2 32 4l63-63c-29-15-61-23-95-23-34 0-66 8-95 23z m218 17l-59 60c18 11 34 26 45 45l59-59c-13-18-28-33-45-46z"/>
<glyph unicode="&#57390;" d="M246 161l56 57c1 0 1 1 2 2 15 18 23 41 23 65 0 15-3 30-9 43l-25-25c1-6 2-12 2-18 0-19-7-37-20-50l-51-51-51-51c-14-13-32-21-51-21-18 0-36 8-50 21l-3 3c-28 28-28 73 0 101l102 102c11 11 26 18 42 20l30 30c-7 2-15 3-22 3-28 0-54-11-73-31l-102-102c-40-40-40-105 0-145l4-4c19-19 45-30 72-30 25 0 48 8 66 24 1 0 1 0 2 1l5 5c0 0 0 0 0 0z m220 253l-4 4c-19 19-45 30-72 30-28 0-54-11-73-30l-102-102c-20-20-30-46-30-73 0-15 3-30 9-43l25 25c-1 6-2 12-2 18 0 19 7 37 20 50l102 102c14 13 32 21 51 21 18 0 36-8 50-21l3-3c28-28 28-73 0-101l-102-102c-11-11-26-18-42-20l-30-30c7-2 15-3 22-3 28 0 53 11 73 31l102 102c40 40 40 105 0 145z"/>
<glyph unicode="&#57391;" d="M480 26l-96 0c-9 0-16 7-16 16l0 155c0 17-3 30-9 39-3 4-9 10-24 10-8 0-15-2-20-7-7-5-11-11-14-18-1-2-2-8-2-18l0-161c0-9-7-16-16-16l-96 0c-4 0-8 2-11 5-3 3-5 7-5 11 0 78 0 140 0 189 0 48 0 76 0 86l0 14c0 4 1 8 4 11 3 3 8 5 12 5l96 0c9 0 16-7 16-16 0 1 1 1 2 2 8 7 19 12 30 15 12 4 25 6 38 6 38 0 69-13 92-39 23-25 35-61 35-107l0-166c0-9-7-16-16-16z m-80 32l64 0 0 150c0 38-9 67-26 86-17 19-40 28-69 28-10 0-20-2-28-4-8-3-15-6-20-10-7-5-11-9-15-13-3-4-6-8-9-12-2-6-8-10-14-10-6 0-12 3-14 8-2 4-3 8-2 12l0 22-64 0c0-11 0-39 0-84 0-45 0-103 0-173l64 0 0 145c0 12 1 22 4 29 5 13 13 24 23 32 12 9 25 14 41 14 28 0 43-13 50-24 10-15 15-34 15-57z m-266-32l-96 0c-9 0-16 7-16 16l0 289c0 9 7 16 16 16l96 0c9 0 16-7 16-16l0-289c0-9-7-16-16-16z m-80 32l64 0 0 257-64 0z m32 296l-1 0c-20 0-37 7-50 19-12 13-19 29-19 47 0 19 7 35 20 48 13 12 30 18 50 18 21 0 37-6 50-19 13-12 20-28 20-47 0-18-6-34-20-47-13-12-30-19-50-19z m0 100c-12 0-21-3-28-10-7-6-10-14-10-24 0-10 3-17 10-24 6-6 15-10 27-10l1 0c12 0 21 4 28 10 7 7 10 14 10 24 0 10-3 18-10 24-7 7-16 10-28 10z"/>
<glyph unicode="&#57392;" d="M480 480l-304 0c-9 0-16-7-16-16l0-80c0-9 7-16 16-16l304 0c9 0 16 7 16 16l0 80c0 9-7 16-16 16z m-16-80l-272 0 0 48 272 0z m16-80l-304 0c-9 0-16-7-16-16l0-96c0-9 7-16 16-16l304 0c9 0 16 7 16 16l0 96c0 9-7 16-16 16z m-16-96l-272 0 0 64 272 0z m16-80l-304 0c-9 0-16-7-16-16l0-80c0-9 7-16 16-16l304 0c9 0 16 7 16 16l0 80c0 9-7 16-16 16z m-16-80l-272 0 0 48 272 0z m-395 408c-31 0-56-25-56-56 0-31 25-56 56-56 31 0 56 25 56 56 0 31-25 56-56 56z m0-80c-13 0-24 11-24 24 0 13 11 24 24 24 13 0 24-11 24-24 0-13-11-24-24-24z m0-80c-31 0-56-25-56-56 0-31 25-56 56-56 31 0 56 25 56 56 0 31-25 56-56 56z m0-80c-13 0-24 11-24 24 0 13 11 24 24 24 13 0 24-11 24-24 0-13-11-24-24-24z m0-80c-31 0-56-25-56-56 0-31 25-56 56-56 31 0 56 25 56 56 0 31-25 56-56 56z m0-80c-13 0-24 11-24 24 0 13 11 24 24 24 13 0 24-11 24-24 0-13-11-24-24-24z"/>
<glyph unicode="&#57393;" d="M481 53l-153 154c25 29 40 67 40 109 0 93-75 168-168 168-93 0-168-75-168-168 0-93 75-168 168-168 40 0 76 14 105 37l154-154c3-3 7-5 11-5 4 0 8 2 11 5 7 6 7 16 0 22z m-417 263c0 75 61 136 136 136 75 0 136-61 136-136 0-75-61-136-136-136-75 0-136 61-136 136z"/>
<glyph unicode="&#57394;" d="M448 355l0-220-110 110-23-23 110-110-354 0 110 110-23 23-110-110 0 220-32 32 0-291c0 0 0 0 0-1 0-1 0-3 1-5 0 0 0 0 0 0 0 0 0 0 0-1 1-1 2-3 3-4 1 0 1-1 2-1 1-1 2-2 3-2 0 0 1-1 1-1 2-1 4-1 6-1l432 0c2 0 4 0 6 1 0 0 1 1 1 1 1 0 2 1 3 2 1 0 1 1 2 1 1 1 2 3 3 4 0 1 0 1 0 1 0 0 0 0 0 0 1 2 1 4 1 5 0 1 0 1 0 1l0 291z m-200-172c-4 0-8 1-11 4l-216 216c-3 3-5 7-5 12 0 8 7 17 16 17l432 0c9 0 16-7 16-16 0-4-2-10-5-13l-216-216c-3-3-7-4-11-4z m-179 217l179-179 179 179z"/>
<glyph unicode="&#57395;" d="M464 73l-113 121-23-22 115-124-372 0 118 115-23 22-118-115 0 230-32 31 0-299c0-1 0-1 0-2 1-1 1-3 1-4 1-1 2-2 3-4 0 0 0-1 1-1 0 0 0 0 0 0 1-2 3-3 5-4 2-1 4-1 6-1 0 0 0 0 0 0l448 0c2 0 4 0 6 1 1 1 2 1 2 2 1 0 2 1 3 1 0 0 0 0 0 1 1 0 2 2 2 3 1 0 1 1 2 2 0 0 0 1 0 2 1 1 1 2 1 4 0 0 0 0 0 0l0 303-32-31z m23 318l-224 117c-4 2-10 2-14 0l-224-117c-6-2-9-8-9-14l0-7c0-4 2-8 5-11l224-224c3-3 7-5 11-5 4 0 8 2 11 5l224 224c3 3 5 9 5 13l0 5c0 6-3 12-9 14z m-231-222l-202 202 202 104 202-104z"/>
<glyph unicode="&#57396;" d="M495 87l-80 301c-1 4-3 7-6 9l-72 48c-5 4-12 4-18 1l-67-43-67 43c-6 3-13 3-19-1l-64-48c-2-2-5-5-5-9l-80-304c-2-6 0-12 5-16 3-3 6-4 10-4 2 0 5 1 7 2l90 45 121-46c4-1 8-1 12 0l114 46 97-46c2-1 5-1 7-1 9 0 16 7 16 16 0 3 0 5-1 7z m-112 56c-4 1-9 1-13 0l-114-46-122 46c-2 1-4 1-6 1-2 0-5-1-7-2l-65-32 70 265 51 38 66-43c6-3 12-3 18 0l67 43 58-39 70-265z m-213 257c-9 1-17-5-18-14l-28-212c-1-9 5-17 14-18 1 0 1 0 2 0 8 0 15 6 16 14l28 212c1 9-5 17-14 18z m86-32c-9 0-16-7-16-16l0-224c0-9 7-16 16-16 9 0 16 7 16 16l0 224c0 9-7 16-16 16z m78 28c-9-1-15-10-14-18l32-216c1-8 8-14 16-14 1 0 2 0 2 0 9 1 15 10 14 18l-32 216c-1 9-10 15-18 14z"/>
<glyph unicode="&#57397;" d="M480 368l-448 0c-9 0-16 7-16 16l0 96c0 9 7 16 16 16l448 0c9 0 16-7 16-16l0-96c0-9-7-16-16-16z m-432 32l416 0 0 64-416 0z m432-208l-448 0c-9 0-16 7-16 16l0 96c0 9 7 16 16 16l448 0c9 0 16-7 16-16l0-96c0-9-7-16-16-16z m-432 32l416 0 0 64-416 0z m432-208l-448 0c-9 0-16 7-16 16l0 96c0 9 7 16 16 16l448 0c9 0 16-7 16-16l0-96c0-9-7-16-16-16z m-432 32l416 0 0 64-416 0z"/>
<glyph unicode="&#57398;" d="M336 496l-176 0c-26 0-48-22-48-48l0-384c0-26 22-48 48-48l176 0c26 0 48 22 48 48l0 384c0 26-22 48-48 48z m-176-32l176 0c9 0 16-7 16-16l0-48-208 0 0 48c0 9 7 16 16 16z m-16-320l0 224 208 0 0-224z m192-96l-176 0c-9 0-16 7-16 16l0 48 208 0 0-48c0-9-7-16-16-16z m-90 50c-10 0-18-7-18-17 0-10 8-17 18-17 9 0 17 7 17 17 0 10-8 17-17 17z m-22 318l48 0c9 0 16 7 16 16 0 9-7 16-16 16l-48 0c-9 0-16-7-16-16 0-9 7-16 16-16z"/>
<glyph unicode="&#57399;" d="M449 416c8 0 15-7 15-15l0-142-66 67c-18 17-49 17-67 0l-37-37 26-20 34 34c6 6 15 6 21 0l86-86c1-1 2-1 3-2l0-59 32-25 0 270c0 26-21 47-47 47l-360 0 41-32z m-302-320l104 104-25 20-47-46-29 28c-17 18-48 18-66 0l-36-36 0 192-32 25 0-272c0-26 21-47 47-47l363 0-41 32z m-45 0l-39 0c-8 0-15 7-15 15l0 11c1 1 2 1 3 2l56 56c6 5 15 5 21 0l28-29-53-53c0-1-1-1-1-2z m392-3l-460 358c-7 5-17 4-23-3-5-7-4-17 3-23l460-358c3-2 7-3 10-3 5 0 9 2 13 6 5 7 4 17-3 23z m-281 259c-10 18-27 32-47 36z m-62-102c10 0 20 2 28 6l-33 27c-14 1-26 11-31 23l-33 26c-1-4-1-8-1-12 0-39 31-70 70-70z"/>
<glyph unicode="&#57400;" d="M288 471c-4 0-7-2-10-4l-111-96c-4-1-8-3-11-5-3 1-6 2-10 2l-52 0c-16 0-30-14-30-30l0-148c0-16 14-30 30-30l52 0c4 0 7 1 11 2 3-2 7-4 11-5l109-96c3-2 7-4 11-4 17 0 32 14 32 30l0 354c0 16-15 30-32 30z m-192-135l48 0 0-144-48 0z m192-242l-103 90c-3 2-6 4-9 4l0 152c3 0 6 2 8 4l104 89z"/>
<glyph unicode="&#57401;" d="M415 436l0 12c0 31-18 42-33 42-6 0-12-2-18-5l-142-68c-29-14-29-48-29-61-1-1-1-3-1-4l0-182c-9 5-19 7-31 7-5 0-11 0-16-1-41-8-73-43-73-80 0-33 26-57 63-57 5 0 11 0 16 1 41 8 73 43 73 80 0 2 0 3-1 5 1 1 1 2 1 3l0 163 160 73 0-108c-9 4-19 7-31 7-5 0-11-1-16-2-41-8-73-43-73-79 0-34 26-58 63-58 5 0 11 1 16 2 41 8 73 42 73 79 0 1 0 1 0 2 0 0 0 1 0 1l0 224c0 1 0 3-1 4z m-270-364c-3-1-7-1-10-1-16 0-31 8-31 25 0 21 22 43 47 48 3 1 7 1 10 1 16 0 31-8 31-25 0-21-22-43-47-48z m79 254l1 29c-1 24 5 30 11 33l142 68c2 1 3 2 3 2 1-1 2-4 2-10l1-48z m113-169c-3-1-7-1-10-1-16 0-31 8-31 26 0 21 22 43 47 48 3 0 7 1 10 1 16 0 31-8 31-26 0-21-22-43-47-48z"/>
<glyph unicode="&#57402;" d="M416 304l0-229c0-11-14-27-24-27l-272 0c-10 0-24 16-24 27l0 378c0 11 14 11 24 11l120 0 0 32-120 0c-28 0-56-15-56-43l0-378c0-28 28-59 56-59l272 0c28 0 56 31 56 59l0 229z m-128 32l138 0c0 0 0 0 1 0 8 0 16 7 16 16 0 5-3 10-7 13l-137 134c-4 5-11 6-17 4-6-3-10-9-10-15l0-136c0-9 7-16 16-16z m16 114l83-82-83 0z"/>
<glyph unicode="&#57403;" d="M352 272l-208 0c-9 0-16-7-16-16 0-9 7-16 16-16l208 0c9 0 16 7 16 16 0 9-7 16-16 16z m0-112l-208 0c-9 0-16-7-16-16 0-9 7-16 16-16l208 0c9 0 16 7 16 16 0 9-7 16-16 16z m64 144l0-229c0-11-14-27-24-27l-272 0c-10 0-24 16-24 27l0 378c0 11 14 11 24 11l104 0 0 32-104 0c-28 0-56-15-56-43l0-378c0-28 28-59 56-59l272 0c28 0 56 31 56 59l0 229z m-272 48l80 0 0 32-80 0c-9 0-16-7-16-16 0-9 7-16 16-16z m128-16l154 0c0 0 0 0 1 0 8 0 16 7 16 16 0 6-3 11-8 14l-152 134c-5 4-12 5-18 3-5-3-9-9-9-15l0-136c0-9 7-16 16-16z m16 117l96-85-96 0z"/>
<glyph unicode="&#57404;" d="M96 443c0 6 15 21 23 21 0 0 261 0 272 0-8 18-27 32-46 32l-226 0c-23 0-55-26-55-53l0-314c0-19 16-33 32-39z m160-107l-64 0c-9 0-16-7-16-16 0-9 7-16 16-16l64 0z m112-128l-176 0c-9 0-16 7-16 16 0 9 7 16 16 16l176 0c9 0 16-7 16-16 0-9-7-16-16-16z m0-96l-176 0c-9 0-16 7-16 16 0 9 7 16 16 16l176 0c9 0 16-7 16-16 0-9-7-16-16-16z m48 144l0-187c0-7-11-21-18-21l-226 0c-7 0-12 14-12 21l0 315c0 7 5 16 12 16l84 0 0 32-84 0c-24 0-44-24-44-48l0-315c0-25 20-53 44-53l226 0c25 0 50 28 50 53l0 187z m11 32c0 0 0 0 0 0l-123 0c-9 0-16 7-16 16l0 108c0 7 4 12 9 15 6 3 13 1 18-3l121-106c4-3 7-8 7-14 0-9-7-16-16-16z m-107 32l64 0-64 57z"/>
<glyph unicode="&#57405;" d="M468 490c0 1 0 2 0 3-1 1-1 2-1 2-1 1-1 2-2 3 0 0 0 1-1 1 0 0 0 0-1 1 0 0-1 1-2 2-1 0-2 0-3 1 0 0 0 0-1 0 0 0-1 0-1 1-1 0-2 0-3 0-1 0-2 0-3 0 0 0-1-1-2-1-1 0-2-1-3-1 0 0-1 0-1-1l-394-264c-4-3-7-8-7-14 0-5 3-10 8-13l123-73 16-115c1-7 7-13 13-14 1 0 2 0 3 0 6 0 11 3 14 8l42 79 160-16c0 0 1-1 1-1 4 0 8 2 11 4 3 3 5 7 5 11l30 394c0 0 0 0 0 1 0 1-1 2-1 2z m-89-71l-195-251-95 57z m-164-344l-10 68 146 188z m194 37l-130 14 152 284z"/>
<glyph unicode="&#57406;" d="M162 32l-45 0c-29 0-52 23-52 52l0 344c0 29 24 52 52 52l45 0c29 0 52-23 52-52l0-344c0-29-23-52-52-52z m-45 416c-11 0-20-9-20-20l0-344c0-11 9-20 20-20l45 0c11 0 20 9 20 20l0 344c0 11-9 20-20 20z m278-416l-45 0c-29 0-52 23-52 52l0 344c0 29 23 52 52 52l45 0c28 0 52-23 52-52l0-344c0-29-24-52-52-52z m-45 416c-11 0-20-9-20-20l0-344c0-11 9-20 20-20l45 0c11 0 20 9 20 20l0 344c0 11-9 20-20 20z"/>
<glyph unicode="&#57407;" d="M462 409l-55 56c-15 14-41 14-55 0l-12-12c-3-3-6-8-8-12-3-1-6-2-8-4l-233-233c-6-6-6-17 0-23l1 0c-12-2-23-10-26-21l-27-88c-2-10-1-19 5-27 6-8 15-12 24-12 4 0 7 0 10 2l85 30c9 4 16 12 19 22 0 1 0 3 0 4 2-1 5-2 8-2 4 0 8 2 11 5l233 233c2 2 4 5 4 8 5 2 9 5 12 8l12 11c15 16 15 40 0 55z m-391-343l25 81 53-53z m119 62l-65 65 210 210 33-32 27-28 5-5z m249 249l-11-11c-4-4-7-4-10 0l-28 27-27 28c-3 3-3 7 0 9l11 12c2 2 4 2 5 2 1 0 3 0 5-2l55-55c3-3 3-7 0-10z"/>
<glyph unicode="&#57408;" d="M432 93c0-7-6-13-13-13l-342 0c-7 0-13 6-13 13l0 342c0 7 6 13 13 13l222 0 32 32-254 0c-25 0-45-20-45-45l0-342c0-25 20-45 45-45l342 0c25 0 45 20 45 45l0 228-32-32z m46 339l-49 49c-14 14-38 14-51 0l-10-10c-4-3-6-7-8-10-2-1-5-2-7-4l-208-209c-3-3-5-7-5-11 0-3 2-7 4-9-10-2-19-10-22-20l-24-78c-2-9-1-18 5-26 5-7 14-11 23-11 3 0 6 0 9 1l76 28c9 3 16 11 18 20 0 1 0 2 0 2 2-1 3-1 5-1 4 0 8 2 12 5l208 208c2 2 3 5 4 7 4 2 7 4 10 7l10 11c7 6 11 16 11 25 0 10-4 19-11 26z m-88 16l10 11c1 1 3 1 3 1 1 0 2 0 4-1l49-50c1-1 1-2 1-3 0-1 0-2-1-3l-10-10c-3-2-4-2-7 0l-49 49c-1 1-1 3-1 3 0 1 0 2 1 3z m-259-321l20 67 44-44z m103 55l-55 55 185 186 56-56z"/>
<glyph unicode="&#57409;" d="M449 448l-386 0c-26 0-47-21-47-47l0-290c0-26 21-47 47-47l386 0c26 0 47 21 47 47l0 290c0 26-21 47-47 47z m-386-32l386 0c8 0 15-7 15-15l0-142-66 67c-18 17-49 17-67 0l-152-152-29 28c-17 18-48 18-66 0l-36-36 0 235c0 8 7 15 15 15z m-15-305l0 11c1 1 2 1 3 2l56 56c6 5 15 5 21 0l28-29-53-53c0-1-1-1-1-2l-39 0c-8 0-15 7-15 15z m401-15l-302 0 207 207c6 6 15 6 21 0l86-86c1-1 2-1 3-2l0-104c0-8-7-15-15-15z m-298 154c38 0 70 31 70 70 0 39-32 70-70 70-39 0-70-31-70-70 0-39 31-70 70-70z m0 108c21 0 38-17 38-38 0-21-17-38-38-38-21 0-38 17-38 38 0 21 17 38 38 38z"/>
<glyph unicode="&#57410;" d="M451 464l-339 0c-16 0-29-17-33-32l372 0c9 0 13-11 13-20l0-284 2 0c17 0 30 17 30 34l0 250c0 27-19 52-45 52z m-46-64l-359 0c-17 0-30-20-30-36l0-262c0-16 13-22 30-22l359 0c16 0 27 6 27 22l0 262c0 16-11 36-27 36z m-5-32l0-138-67 69c-11 11-31 11-42 0l-134-137-32 32c-12 12-30 12-42 0l-35-35 0 209z m-352-253c1 0 1 0 2 1l54 54 31-27-35-31-52 0z m95-3l169 166 88-93 0-73z m-47 120c12-7 24-10 36-10 23 0 43 12 54 31 11 20 10 45-3 66-3 6-9 12-15 15-11 8-23 11-36 11-22 0-43-12-54-31-11-21-10-45 3-67 4-6 9-11 15-15z m10 66c6 9 16 15 26 15 7 0 13-2 20-6 1-1 3-3 4-4 10-16 6-28 2-34-8-15-28-20-45-9-2 1-3 2-5 4-9 16-5 28-2 34z"/>
<glyph unicode="&#57411;" d="M256 480c-101 0-184-83-184-184 0-95 146-264 184-264 38 0 184 169 184 264 0 101-83 184-184 184z m0-415c-27 14-152 150-152 231 0 84 68 152 152 152 84 0 152-68 152-152 0-81-125-217-152-231z m0 324c-51 0-93-42-93-93 0-51 42-93 93-93 51 0 93 42 93 93 0 51-42 93-93 93z m0-154c-34 0-61 27-61 61 0 34 27 61 61 61 34 0 61-27 61-61 0-34-27-61-61-61z"/>
<glyph unicode="&#57412;" d="M256 464c38 0 73-9 104-28 32-18 58-44 76-76 19-31 28-66 28-104 0-38-9-73-28-104-18-32-44-58-76-76-31-19-66-28-104-28-20 0-40 3-59 9 11 16 18 31 21 44 2 6 7 25 15 57 3-7 10-13 19-18 10-5 20-8 31-8 22 0 42 6 59 19 17 12 30 29 40 51 9 22 14 46 14 73 0 21-6 40-16 58-11 18-27 33-47 44-20 11-44 17-69 17-19 0-37-3-53-8-17-5-31-12-42-21-12-8-21-18-30-30-8-11-14-23-18-35-4-12-6-24-6-36 0-19 4-35 11-49 8-15 18-25 32-31 1 0 3 0 4 0 3 0 5 2 6 6 1 1 1 4 2 8 2 5 2 7 3 8 1 5 0 8-3 12-10 11-14 25-14 41 0 27 9 51 28 70 19 20 44 30 74 30 27 0 49-8 64-23 15-14 23-34 23-57 0-31-6-57-19-79-12-21-28-32-47-32-11 0-20 4-27 12-6 8-9 17-6 28 1 7 4 15 7 26 4 10 6 20 8 28 2 8 3 14 3 20 0 9-2 17-7 22-5 6-12 9-21 9-11 0-20-5-28-15-8-10-12-23-12-38 0-14 2-25 7-34l-27-113c-3-12-4-28-3-48-38 17-68 42-91 76-23 35-34 73-34 115 0 38 9 73 28 104 18 32 44 58 76 76 31 19 66 28 104 28m0 32c-43 0-84-11-121-32-36-22-65-51-87-87-21-37-32-78-32-121 0-48 13-93 40-132 26-40 61-69 104-88 4-2 23-9 28-10 22-7 45-10 68-10 43 0 84 11 121 32 36 22 65 51 87 87 21 37 32 78 32 121 0 43-11 84-32 121-22 36-51 65-87 87-37 21-78 32-121 32z m-28-234c0 6 2 10 4 14-1-1-1-4-2-6 0-3-1-5-2-8z"/>
<glyph unicode="&#57413;" d="M81 30c-27 0-49 21-49 48l0 356c0 27 22 48 49 48 8 0 15-1 22-5l350-177c17-9 27-26 27-44 0-18-10-35-27-44l-350-177c-7-4-14-5-22-5z m0 420c-8 0-17-6-17-16l0-356c0-13 14-20 24-15l351 178c6 3 9 9 9 15 0 6-3 12-9 15l-351 178c-2 1-5 1-7 1z"/>
<glyph unicode="&#57414;" d="M480 272l-208 0 0 208c0 9-7 16-16 16-9 0-16-7-16-16l0-208-208 0c-9 0-16-7-16-16 0-9 7-16 16-16l208 0 0-208c0-9 7-16 16-16 9 0 16 7 16 16l0 208 208 0c9 0 16 7 16 16 0 9-7 16-16 16z"/>
<glyph unicode="&#57415;" d="M250 443c-43 0-105-26-105-98 0-9 7-16 16-16 9 0 16 7 16 16 0 65 72 66 73 66 43 0 79-36 79-79 0-30-26-54-48-75-11-10-21-20-27-29-19-29-29-46-29-83 0-9 7-16 16-16 8 0 16 7 16 16 0 28 7 39 24 65 4 6 13 15 22 24 24 23 58 54 58 98 0 61-50 111-111 111z m-10-344c-10 0-19-9-19-19 0-10 9-19 19-19 10 0 19 9 19 19 0 10-9 19-19 19z"/>
<glyph unicode="&#57416;" d="M48 68c-9 0-16 8-16 16l0 59c0 9 7 16 16 16 23 0 71 24 89 97l-47 0c-54 0-58 32-58 42l0 110c0 29 28 56 58 56l91 0c30 0 59-27 59-56l0-124c0-106-72-216-192-216z m16 61l0-28c90 10 144 98 144 183l0 124c0 11-15 24-27 24l-91 0c-12 0-26-13-26-24l0-110c0-9 18-10 26-10l67 0c4 0 9-2 12-6 3-3 4-8 3-12-13-91-68-133-108-141z m224-61c-9 0-16 8-16 16l0 59c0 9 7 16 16 16 47 0 81 35 95 97l-47 0c-40 0-64 16-64 42l0 110c0 30 35 56 64 56l91 0c29 0 53-26 53-56l0-124c0-106-72-216-192-216z m16 60l0-27c90 10 144 98 144 183l0 124c0 13-10 24-21 24l-91 0c-14 0-32-14-32-24l0-110c0-5 15-10 32-10l66 0c5 0 10-2 13-6 3-3 4-8 3-12-17-112-79-137-114-142z"/>
<glyph unicode="&#57417;" d="M422 64l-91 0c-28 0-59 22-59 53l0 124c0 106 72 216 192 216 9 0 16-7 16-16l0-59c0-8-7-16-16-16-45 0-76-32-89-94l47 0c35 0 58-18 58-45l0-110c0-31-31-53-58-53z m26 360c-90-9-144-98-144-183l0-124c0-10 14-21 27-21l91 0c13 0 26 11 26 21l0 110c0 13-26 13-26 13l-67 0c-4 0-9 2-12 6-3 3-4 8-3 12 16 107 69 134 108 139z m-272-360l-91 0c-29 0-53 24-53 53l0 124c0 106 72 216 192 216 9 0 16-7 16-16l0-59c0-8-7-16-16-16-28 0-77-12-95-94l47 0c32 0 64-15 64-45l0-110c0-30-34-53-64-53z m32 360c-90-9-144-98-144-183l0-124c0-12 9-21 21-21l91 0c14 0 32 12 32 21l0 110c0 7-15 13-32 13l-66 0c-5 0-10 2-13 6-3 3-4 8-3 12 16 109 77 134 114 139z"/>
<glyph unicode="&#57418;" d="M100 182c-48 0-86-38-86-86 0-48 38-86 86-86 48 0 87 38 87 86 0 48-39 86-87 86z m0-140c-30 0-54 24-54 54 0 30 24 54 54 54 30 0 55-24 55-54 0-30-25-54-55-54z m-2 304c-16 0-34-13-34-31l0-61c0-19 18-32 34-32 76 0 129-65 129-123 0-16 14-35 33-35l62 0c18 0 31 18 31 35 0 3-1 6-2 8-3 128-121 239-253 239z m222-250l-59 0c-1 0-2 2-2 3 0 73-66 155-161 155 0 0-1 1-2 1l0 58c1 1 2 1 2 1 116 0 220-98 222-210 0-2 0-3 0-4 0-1 0-2 1-3 0 0-1-1-1-1z m173 11c-2 207-183 383-395 383-16 0-34-13-34-32l0-59c0-19 18-32 34-32 144 0 269-125 269-268 0-16 14-35 33-35l62 0c19 0 31 18 31 35 0 1 0 4 0 8z m-33-11l-58 0c-1 0-3 2-3 3 0 163-138 300-301 300 0 0-1 1-2 1l0 57c1 0 2 1 2 1 195 0 361-162 363-353 0-1 0-1 0-2 0-1 0-3 0-4 0-1 0-2-1-3z"/>
<glyph unicode="&#57419;" d="M400 336l-64 0 0-32 48 0 0-256-256 0 0 256 48 0 0 32-64 0c-9 0-16-7-16-16l0-288c0-9 7-16 16-16l288 0c9 0 16 7 16 16l0 288c0 9-7 16-16 16z m-227 30c4 0 8 1 11 4l56 56 0-202c0-9 7-16 16-16 9 0 16 7 16 16l0 206 59-60c7-6 17-6 23 0 6 6 6 17 0 23l-85 85c-6 6-16 6-22 0l-85-85c-7-6-7-17 0-23 3-3 7-4 11-4z"/>
<glyph unicode="&#57420;" d="M288 471c-4 0-7-2-10-4l-111-96c-4-1-8-3-11-5-3 1-6 2-10 2l-52 0c-16 0-30-14-30-30l0-148c0-16 14-30 30-30l52 0c4 0 7 1 11 2 3-2 7-4 11-5l109-96c3-2 7-4 11-4 17 0 32 14 32 30l0 354c0 16-15 30-32 30z m-192-135l48 0 0-144-48 0z m192-242l-103 90c-3 2-6 4-9 4l0 152c3 0 6 2 8 4l104 89z m66 231c-7 6-17 6-23-1-6-7-5-17 1-23 13-10 19-25 19-41 0-14-6-28-16-39-7-6-7-16-1-22 4-3 8-5 12-5 4 0 8 1 11 5 17 16 26 38 26 61 0 25-11 49-29 65z"/>
<glyph unicode="&#57421;" d="M272 471c-4 0-7-2-10-4l-111-96c-4-1-8-3-11-5-3 1-6 2-10 2l-52 0c-16 0-30-14-30-30l0-148c0-16 14-30 30-30l52 0c4 0 7 1 11 2 3-2 7-4 11-5l109-96c3-2 7-4 11-4 17 0 32 14 32 30l0 354c0 16-15 30-32 30z m-192-135l48 0 0-144-48 0z m192-242l-103 90c-3 2-6 4-9 4l0 152c3 0 6 2 8 4l104 89z m91 274c-7 6-17 4-22-3-6-7-4-17 3-22 26-20 41-50 41-83 0-31-14-60-39-80-6-6-7-16-2-23 3-3 8-5 13-5 3 0 7 1 10 3 31 26 50 65 50 105 0 43-20 82-54 108z m4-108c0 25-11 49-29 65-7 6-17 6-23-1-6-7-5-17 1-23 13-10 19-25 19-41 0-14-6-28-16-39-7-6-7-16-1-22 4-3 8-5 12-5 4 0 8 1 11 5 17 16 26 38 26 61z"/>
<glyph unicode="&#57422;" d="M288 471c-4 0-7-2-10-4l-111-96c-4-1-8-3-11-5-3 1-6 2-10 2l-52 0c-16 0-30-14-30-30l0-148c0-16 14-30 30-30l52 0c4 0 7 1 11 2 3-2 7-4 11-5l109-96c3-2 7-4 11-4 17 0 32 14 32 30l0 354c0 16-15 30-32 30z m-192-135l48 0 0-144-48 0z m192-242l-103 90c-3 2-6 4-9 4l0 152c3 0 6 2 8 4l104 89z m117 317c-7 5-17 3-22-4-5-7-4-17 3-22 40-29 64-76 64-125 0-48-22-92-61-122-7-5-8-15-3-22 3-4 8-6 13-6 3 0 7 1 10 3 46 35 73 89 73 147 0 60-29 116-77 151z m28-151c0 43-20 82-54 108-7 6-17 4-22-3-6-7-4-17 3-22 26-20 41-50 41-83 0-31-14-60-39-80-6-6-7-16-2-23 3-3 8-5 13-5 3 0 7 1 10 3 31 26 50 65 50 105z m-50 0c0 25-11 49-29 65-7 6-17 6-23-1-6-7-5-17 1-23 13-10 19-25 19-41 0-14-6-28-16-39-7-6-7-16-1-22 4-3 8-5 12-5 4 0 8 1 11 5 17 16 26 38 26 61z"/>
<glyph unicode="&#57423;" d="M112 24c-3 0-6 1-9 3-5 4-8 10-7 16l26 148-107 105c-4 4-5 10-4 16 2 6 7 10 13 11l147 21 65 135c6 11 24 11 29 0l66-135 146-21c6-1 11-5 13-11 2-6 0-12-4-16l-106-105 25-148c1-6-2-12-7-16-4-4-11-4-16-1l-131 70-131-70c-3-1-5-2-8-2z m-51 272l89-88c4-4 5-9 4-14l-21-125 110 59c5 2 10 2 15 0l110-59-21 125c-1 5 1 10 4 14l90 88-123 18c-6 1-10 4-13 9l-54 112-55-112c-2-5-7-8-12-9z"/>
<glyph unicode="&#57424;" d="M426 32l-340 0c-30 0-54 24-54 54l0 340c0 30 24 54 54 54l340 0c30 0 54-24 54-54l0-340c0-30-24-54-54-54z m-340 416c-12 0-22-10-22-22l0-340c0-12 10-22 22-22l340 0c12 0 22 10 22 22l0 340c0 12-10 22-22 22z"/>
<glyph unicode="&#57425;" d="M233 14c-16 0-27 11-38 22l-154 154c-14 14-37 37-10 64l209 210c11 10 22 16 35 17l0 0c3 0 14 0 52 0 31 0 69 0 94 0 16 0 31-7 44-21 14-13 21-28 21-44 0-126-1-150-2-157l0 0c-3-10-9-17-15-23l-210-210c-8-8-17-12-26-12z m44 435c0 0 0 0 0 0-5 0-9-3-14-8l-210-209c-2-3-3-4-3-4 1-3 9-11 14-15l153-154c5-5 12-12 16-13 0 0 1 1 3 3l210 209c3 3 6 6 7 9 0 13 1 96 1 149 0 7-4 14-11 22-7 7-15 11-21 11-26 0-64 0-95 0-31 0-47 0-50 0z m81-169c-20 0-38 7-52 21-13 13-21 32-21 51 0 19 8 38 21 51 14 14 32 21 52 21 19 0 37-7 51-21 28-28 28-74 0-102-14-14-32-21-51-21z m0 112c-11 0-21-4-29-11-8-8-12-18-12-29 0-11 4-21 12-29 15-15 42-15 57 0 16 16 16 42 0 58-8 7-18 11-28 11z"/>
<glyph unicode="&#57426;" d="M206 54c-15 0-25 10-35 20l-135 134c-12 12-34 34-9 60l184 183c9 10 20 15 31 16l0 0c4 0 13 0 47 0 27 0 60 0 81 0 15 0 28-7 41-19 12-13 18-26 18-40 0-111-1-132-2-138l0 0c-2-9-8-16-14-22l-183-183c-8-8-16-11-24-11z m-158 189c2-3 8-9 11-12l134-135c4-3 9-8 12-10 1 0 1 1 2 2l184 183c2 2 4 5 5 7 1 12 1 85 1 130 0 5-3 11-9 17-6 6-12 10-17 10-41 0-119 0-127 0 0 0 0 0 0 0-3-1-7-3-11-7l-183-183c-1-1-1-2-2-2z m267 43c-18 0-34 7-46 19-26 26-26 67 0 93 12 12 28 19 46 19 17 0 34-7 46-19 25-26 25-67 0-93-12-12-29-19-46-19z m0 99c-9 0-17-3-24-10-13-13-13-34 0-47 13-12 35-12 47 0 13 13 13 34 0 47-6 7-14 10-23 10z m181-21c0 13-6 25-17 36-4 5-10 8-15 11 0 0-1-150-1-157-1-1-182-183-182-183 7-5 14-10 23-10 8 0 15 4 22 11l156 155c5 5 10 11 12 20l0 0c1 5 2 24 2 117z"/>
<glyph unicode="&#57427;" d="M119 47c-16 0-30 8-38 21l-39 64c-14 21-7 49 14 63 21 14 42 28 61 43 8 6 16 9 25 9 12 0 23-5 35-11 7-3 14-6 21-9 39 33 76 70 109 109-3 7-6 15-9 22-7 14-19 37-2 59 15 20 29 40 43 61 9 13 24 21 40 21 8 0 16-2 23-6l65-40c9-6 17-16 19-27 3-14 0-28-7-40-87-132-198-244-331-331-9-5-19-8-29-8z m23 168c-1 0-3 0-5-2-21-15-42-30-63-45-7-4-9-13-5-20l39-64c2-3 6-5 11-5 4 0 8 1 11 3 129 85 237 193 322 322 3 4 4 10 3 14-1 3-2 6-5 8l-64 39c-7 4-16 2-20-5-14-21-29-42-45-63-3-4-3-8 6-25 5-12 9-22 14-33 2-6 1-12-3-16-39-46-81-88-127-127-4-4-10-5-16-2-11 4-21 8-32 13-8 4-16 8-21 8z"/>
<glyph unicode="&#57428;" d="M196 272l-136 0c-24 0-44 20-44 44l0 120c0 24 20 44 44 44l136 0c24 0 44-20 44-44l0-120c0-24-20-44-44-44z m-136 176c-7 0-12-5-12-12l0-120c0-7 5-12 12-12l136 0c7 0 12 5 12 12l0 120c0 7-5 12-12 12z m392-176l-136 0c-24 0-44 20-44 44l0 120c0 24 20 44 44 44l136 0c24 0 44-20 44-44l0-120c0-24-20-44-44-44z m-136 176c-7 0-12-5-12-12l0-120c0-7 5-12 12-12l136 0c7 0 12 5 12 12l0 120c0 7-5 12-12 12z m-120-416l-136 0c-24 0-44 20-44 44l0 120c0 24 20 44 44 44l136 0c24 0 44-20 44-44l0-120c0-24-20-44-44-44z m-136 176c-7 0-12-5-12-12l0-120c0-7 5-12 12-12l136 0c7 0 12 5 12 12l0 120c0 7-5 12-12 12z m392-176l-136 0c-24 0-44 20-44 44l0 120c0 24 20 44 44 44l136 0c24 0 44-20 44-44l0-120c0-24-20-44-44-44z m-136 176c-7 0-12-5-12-12l0-120c0-7 5-12 12-12l136 0c7 0 12 5 12 12l0 120c0 7-5 12-12 12z"/>
<glyph unicode="&#57429;" d="M192 112l0 240c0 9-7 16-16 16-9 0-16-7-16-16l0-240c0-9 7-16 16-16 9 0 16 7 16 16z m80 0l0 240c0 9-7 16-16 16-9 0-16-7-16-16l0-240c0-9 7-16 16-16 9 0 16 7 16 16z m80 0l0 240c0 9-7 16-16 16-9 0-16-7-16-16l0-240c0-9 7-16 16-16 9 0 16 7 16 16z m32-16c0-9-7-16-16-16l-224 0c-9 0-16 7-16 16l0 272-32 0 0-272c0-26 22-48 48-48l224 0c26 0 48 22 48 48l0 272-32 0z m48 320l-16 0 0 16c0 26-22 48-48 48l-224 0c-26 0-48-22-48-48l0-16-16 0c-9 0-16-7-16-16 0-9 7-16 16-16l352 0c9 0 16 7 16 16 0 9-7 16-16 16z m-304 16c0 9 7 16 16 16l224 0c9 0 16-7 16-16l0-16-256 0z"/>
<glyph unicode="&#57430;" d="M174 56c-55 0-108 15-155 45-6 4-9 12-6 19 3 7 10 11 17 10 33-4 68 2 97 17-29 12-52 37-62 68-2 5-1 11 3 16 0 0 0 0 1 0-24 21-38 51-38 84 0 6 3 11 8 14 1 1 3 2 5 3-8 15-13 33-13 51 0 20 6 39 16 56 2 5 7 8 12 8 5 1 10-1 14-6 41-50 101-83 165-91 0 1 0 2 0 4 0 61 50 111 111 111 28 0 54-11 75-29 16 4 32 11 47 20 6 3 13 2 18-2 5-4 8-11 5-17-1-6-4-12-7-18 6 2 13 0 17-5 5-5 5-13 1-19-12-18-27-34-44-48 0-1 0-3 0-4 0-141-107-287-287-287z m-82 45c26-9 54-13 82-13 160 0 255 129 255 255 0 3 0 7 0 11-1 6 2 11 6 14 3 2 5 4 8 6-1 0-3-1-4-1-7-1-14 4-17 11-2 7 1 15 7 19 2 1 3 2 4 3-3-1-7-2-11-3-6-1-11 1-15 5-15 16-36 25-58 25-43 0-79-36-79-79 0-7 1-13 2-18 1-5 0-11-3-14-3-4-8-6-13-6-72 4-140 34-190 86-2-6-3-12-3-19 0-26 14-51 36-65 6-4 8-12 6-19-2-6-9-11-16-11-7 0-15 2-23 3 9-27 32-48 60-54 7-1 13-7 13-15 0-7-5-14-12-16-6-2-13-3-20-3 14-20 37-33 62-33 7 0 13-5 15-11 2-6 0-14-5-18-26-20-55-33-87-40z"/>
<glyph unicode="&#57431;" d="M464 32c-9 0-16 7-16 16l0 23c0 33-27 47-72 66-8 3-17 5-25 8-29 8-63 18-63 84 0 7 4 13 9 15 21 9 28 27 28 68 0 4 1 8 4 11 8 10 17 23 17 27 0 77-28 114-87 114l-20 0c-60 0-88-37-88-114 0-4 7-18 14-29 2-2 3-6 3-9 0-42 8-61 29-70 6-2 10-8 10-14 0-56-5-65-46-80-7-3-16-7-26-11l-4-2c-56-25-67-31-67-64l0-23c0-9-7-16-16-16-9 0-16 7-16 16l0 23c0 55 29 68 86 93l4 2c11 5 20 9 28 12 23 8 25 9 25 40-33 19-39 55-39 89-7 11-17 30-17 43 0 127 75 146 120 146l21 0c44 0 119-19 119-146 0-15-14-33-22-44-1-34-7-67-37-86 2-33 14-37 40-45 9-2 18-5 28-9 43-18 92-39 92-95l0-23c0-9-7-16-16-16z"/>
<glyph unicode="&#57432;" d="M143 305c0 7-4 13-9 15-8 3-12 10-12 33 0 3-1 6-3 9-3 5-7 11-7 13 0 51 24 57 42 57l12 0c11 0 25-2 33-17 9 6 18 10 29 13-16 31-47 36-63 36l-11 0c-22 0-74-9-74-89 0-8 5-19 10-27 0-14 2-38 21-52-1-5-1-6-1-6-1-1-7-3-12-5-5-2-12-4-20-8-4-1-8-3-11-5-26-11-51-21-51-54l0-26c0-9 7-16 16-16 9 0 16 7 16 16l0 26c0 10 4 13 31 25 4 2 8 3 12 5 7 3 13 5 18 7 23 8 34 16 34 50z m302-28c-5 3-10 4-14 5-11 4-14 5-15 13 26 12 24 33 22 47 0 2 0 3 0 5 6 8 12 18 12 28 0 77-45 89-72 89l-12 0c-16 0-46-4-63-36 10-2 20-6 30-12 9 14 22 16 33 16l12 0c28 0 40-17 40-56-1-3-5-9-8-13-3-3-4-7-4-11 0-4 0-9 1-14 1-13 1-13-11-16-7-2-12-9-12-16 0-39 16-48 37-54 4-1 7-2 12-4 25-11 31-17 31-30l0-26c0-9 7-16 16-16 9 0 16 7 16 16l0 26c0 38-31 51-51 59z m-67-114l-5 2c-8 3-15 5-22 7-19 5-27 7-29 25 29 15 30 42 30 65l0 1c0 11 15 26 15 37 0 101-59 116-93 116l-15 0c-59 0-93-42-93-116 0-10 8-24 13-34 0-18 2-51 29-68-1-17-3-18-18-24-6-2-13-5-22-9l-6-3c-40-17-66-29-66-71l0-27c0-9 7-16 16-16 9 0 16 7 16 16l0 27c0 20 6 24 47 42l6 3c8 3 15 6 20 8 31 12 39 19 39 63 0 7-4 12-10 15-14 6-19 19-19 48 0 3-1 6-2 9-5 8-10 19-11 21 0 84 46 84 61 84l15 0c41 0 59-27 59-83 0-3-7-14-13-23-2-2-3-6-3-9l0-8c0-25-1-32-18-38-7-3-11-9-11-16 0-51 31-60 54-66 6-2 12-3 18-6l5-2c31-13 51-23 51-42l0-27c0-9 7-16 16-16 9 0 16 7 16 16l0 27c0 42-39 58-70 72z"/>
<glyph unicode="&#57433;" d="M406 464c16 0 29-5 41-17 12-12 17-25 17-41l0-300c0-16-5-29-17-41-12-12-25-17-41-17l-300 0c-16 0-29 5-41 17-12 12-17 25-17 41l0 164c7-5 13-7 18-8 2-1 5-1 8-1 6 0 13 2 21 4 1-3 2-6 3-10 2-7 4-12 5-16 2-6 7-20 16-55 8-32 14-53 19-66 12-29 29-47 49-56 1-1 3-1 4-2 8-2 15-3 23-3 7 0 13 1 20 3 12 3 23 7 32 13 31 18 61 46 88 83 23 30 42 63 57 97 16 35 25 60 28 78 5 27 1 50-13 67-10 13-29 28-65 28-7 0-15-1-23-2 0 0 0 0-1 0-5-1-12-3-19-6-7-3-14-7-23-12-8-5-17-12-24-18-9-8-17-17-24-28-4-5-7-11-9-16-2 8-3 12-4 15-4 11-9 21-16 30-9 13-20 21-33 25-6 1-12 2-19 2-14 0-30-4-45-13-14-8-29-20-48-37-11-10-19-17-25-22l0 62c0 16 5 29 17 41 12 12 25 17 41 17l300 0m-158-181c4-1 8-2 11-2 1 0 2 0 3 0 3 1 6 1 8 1 1 0 1 0 1 0 0-1 0-1 0-2 0-2-1-11-12-32-2-3-3-5-4-7-2 4-3 9-3 12-1 7-2 15-3 26-1 1-1 3-1 4m158 213l-300 0c-25 0-46-9-64-26-17-18-26-39-26-64l0-300c0-25 9-46 26-64 18-17 39-26 64-26l300 0c25 0 46 9 64 26 17 18 26 39 26 64l0 300c0 25-9 46-26 64-18 17-39 26-64 26z m-147-183c4 10 8 20 14 29 6 9 12 16 19 22 6 5 13 10 20 15 7 4 13 7 18 9 5 2 9 4 13 4 6 1 13 2 18 2 19 0 32-5 40-16 8-10 10-23 7-41-3-15-12-39-26-71-14-32-32-62-54-91-25-34-51-58-78-74-7-5-15-8-24-10-4-1-8-2-12-2-5 0-9 1-14 2-13 6-24 19-32 39-5 11-11 32-18 62-8 29-13 49-17 58-1 3-2 7-4 13-1 6-3 11-4 15-2 4-4 8-6 12-4 6-8 9-13 9-1 0-1 0-1 0-5 0-11-1-17-3-6-2-11-3-14-3-1 0-2 0-3 0-3 1-5 3-7 7-2 3-5 6-8 8l0 2c8 6 21 16 38 32 17 15 32 26 43 33 10 6 20 9 29 9 4 0 7 0 11-1 5-2 11-6 15-13 5-6 9-14 12-21 2-8 5-25 10-51 1-5 2-12 3-23 1-11 2-19 3-26 1-7 3-14 6-23 3-8 7-15 12-20 5-6 10-9 16-9 3 0 7 2 11 5 6 4 13 14 22 30 10 19 15 34 16 45 2 16-1 26-8 31-5 4-14 6-25 6-3 0-7 0-11-1z"/>
<glyph unicode="&#57434;" d="M256 80c-75 0-132 2-170 6-15 2-28 8-40 19-11 11-19 24-22 39-2 11-4 25-6 39-1 14-2 26-2 35 0 9 0 22 0 38 0 16 0 29 0 38 0 9 1 21 2 35 2 14 4 28 6 39 4 15 11 28 22 39 12 11 25 17 40 19 38 4 95 6 170 6 75 0 132-2 170-6 15-2 28-8 40-19 11-11 18-24 22-39 2-11 4-25 6-39 1-14 2-26 2-35 0-9 0-22 0-38 0-16 0-29 0-38 0-9-1-21-2-35-2-14-4-28-6-39-4-15-11-28-22-39-12-11-25-17-40-19-38-4-95-6-170-6z m0 320c-74 0-130-2-166-6-8-1-15-4-22-10-6-7-10-14-12-23-3-10-5-22-6-35-1-13-2-24-2-33 0-9 0-21 0-37 0-16 0-28 0-37 0-9 1-20 2-33 2-13 3-25 5-35 2-9 6-16 13-23 6-6 14-9 22-10 36-4 92-6 166-6 74 0 130 2 166 6 8 1 15 4 22 10 6 7 10 14 12 23 3 10 5 22 6 35 1 13 2 24 2 33 0 9 0 21 0 37 0 16 0 28 0 37 0 9-1 20-2 33-2 13-3 25-5 35-2 9-7 16-13 23-6 6-14 9-22 10-36 4-92 6-166 6z m-48-256c-5 0-10 1-15 4-11 6-17 16-17 28l0 160c0 12 6 22 17 28 11 6 22 5 32-1l128-80c9-5 15-15 15-27 0-12-6-22-16-27l-127-80c-4-3-10-5-17-5z m0 192l0-160 128 80z"/>
</font>
</defs>
</svg>
